<?xml version="1.0" encoding="utf-8"?>
<!-- Generator: Adobe Illustrator 18.0.0, SVG Export Plug-In . SVG Version: 6.00 Build 0)  -->
<!DOCTYPE svg PUBLIC "-//W3C//DTD SVG 1.1//EN" "http://www.w3.org/Graphics/SVG/1.1/DTD/svg11.dtd">
<svg version="1.1" id="Layer_1" xmlns="http://www.w3.org/2000/svg" xmlns:xlink="http://www.w3.org/1999/xlink" x="0px" y="0px"
	 viewBox="0 0 225.4 67.9" enable-background="new 0 0 225.4 67.9" xml:space="preserve">
<g>
	<rect x="0" y="0" fill="none" width="225.4" height="67.9"/>
	<g>
		<g>
			<g>
				<path fill="#00985F" d="M36.1,17.1v17.5v0l0,0c0,0.8-0.6,1.4-1.4,1.4h-2.1l0,0c-0.1,0-0.2,0.1-0.2,0.2v14.7c0.5,0,1,0.1,1.6,0.1
					c9.4,0,17-7.6,17-17C51,25.3,44.5,18.1,36.1,17.1z M35.7,43.3c-1.2,0-2.1-1-2.1-2.1c0-1.2,1-2.1,2.1-2.1c1.2,0,2.1,1,2.1,2.1
					C37.9,42.3,36.9,43.3,35.7,43.3z M40.7,43.3c-1.2,0-2.1-1-2.1-2.1c0-1.2,1-2.1,2.1-2.1c1.2,0,2.1,1,2.1,2.1
					C42.8,42.3,41.9,43.3,40.7,43.3z M45.7,43.3c-1.2,0-2.1-1-2.1-2.1c0-1.2,1-2.1,2.1-2.1c1.2,0,2.1,1,2.1,2.1
					C47.8,42.3,46.9,43.3,45.7,43.3z"/>
				<path fill="#00985F" d="M34,17c-9.4,0-17,7.6-17,17c0,8.2,5.7,15,13.4,16.6V35.3h0c0-0.7,0.6-1.3,1.3-1.4l0,0h0.7h1.4
					c0.1,0,0.2-0.1,0.2-0.2L34,17L34,17z M30.7,31c-1.2,0-2.1-1-2.1-2.1c0-1.2,1-2.1,2.1-2.1c1.2,0,2.1,1,2.1,2.1
					C32.8,30,31.9,31,30.7,31z"/>
			</g>
			<g>
				<polygon fill="#00985F" points="204.2,26.3 204.2,32.7 195.6,32.7 195.6,26.3 191.3,26.3 191.3,43.3 195.6,43.3 195.6,36.4 
					204.2,36.4 204.2,43.3 208.4,43.3 208.4,26.3 				"/>
				<path fill="#00985F" d="M133.4,28.2c-0.7-1.5-2.1-2.3-3.5-2.3h0h0h0c-1.4,0-2.8,0.8-3.5,2.3l-6.9,15.1h4.5l1.5-3.6h8.8l1.5,3.6
					h4.5L133.4,28.2z M126.9,36.3l2.6-6.2c0.1-0.2,0.2-0.2,0.3-0.2h0c0,0,0,0,0,0c0.1,0,0.3,0,0.3,0.2l2.6,6.2H126.9z"/>
				<path fill="#00985F" d="M82.8,23.2c-2,0-3.3,1.1-4.2,3.2l-5.5,12.8l-5.5-12.8c-0.9-2.1-2.2-3.2-4.2-3.2c-1.9,0-3.8,1.3-3.8,4.2
					v15.8h4.2V27.9l5.6,12.7c0.7,1.8,2,2.9,3.7,2.9l0,0h0h0l0,0c1.8,0,3-1.1,3.7-2.9l5.6-12.7v15.4h4.2V27.5
					C86.6,24.6,84.7,23.2,82.8,23.2z"/>
				<path fill="#00985F" d="M94.1,39.7c-0.2,0-0.4-0.2-0.4-0.4v-3h10.6v-3.5H93.7v-2.6c0-0.2,0.2-0.4,0.4-0.4h10.5v-3.6H92
					c-1.5,0-2.5,1.2-2.5,2.5v11.9c0,1.3,1.1,2.5,2.5,2.5h12.6v-3.6H94.1z"/>
				<path fill="#00985F" d="M111.7,43.3v-13c0-0.2,0.2-0.4,0.4-0.4h10.5v-3.6H110c-1.5,0-2.5,1.2-2.5,2.5v14.4H111.7z"/>
				<path fill="#00985F" d="M188.5,34.8c0-5.9-2.6-8.7-9-8.7H178c-6.4,0-9,2.8-9,8.7v0c0,5.8,2.6,8.7,9,8.7h1.4
					C185.9,43.4,188.5,40.6,188.5,34.8L188.5,34.8z M179.4,39.9h-1.4c-3.5,0-4.9-1.6-4.9-5.1v0c0-3.4,1.2-5.1,4.9-5.1h1.4
					c3.6,0,4.9,1.7,4.9,5.1v0C184.3,38.3,183,39.9,179.4,39.9z"/>
				<path fill="#00985F" d="M157.2,23.6h-8.4c-6.3,0-8.8,3.2-8.8,8.7c0,0.9,0.1,1.7,0.2,2.4c0.7,3.9,3,6.3,8.9,6.3h1.9v2.2h4.2v-2.2
					h1.8c5.9,0,8.2-2.4,8.9-6.3c0.1-0.7,0.2-1.5,0.2-2.4C166,26.8,163.4,23.6,157.2,23.6z M150.8,37.5h-1.9c-2.9,0-3.9-1.1-4.5-2.8
					c-0.2-0.6-0.2-1.5-0.2-2.4c0-3.6,1.7-5.1,4.1-5.1h2.6V37.5z M161.6,34.8c-0.6,1.7-1.7,2.8-4.5,2.8h-1.9V27.2h2.6
					c2.4,0,4.1,1.5,4.1,5.1C161.8,33.3,161.8,34.1,161.6,34.8z"/>
			</g>
		</g>
	</g>
</g>
</svg>
