<svg version="1.1" viewBox="0 0 587 781" xmlns="http://www.w3.org/2000/svg">
 <g>
  <rect width="587" height="781" fill="#00aeef"/>
 </g>
 <g>
  <path d="m257.45 517.54c-12.276 0-22.974 5.1014-29.92 13.562s-10.268 19.795-10.268 32.25c0 12.455 3.3216 23.789 10.268 32.25s17.644 13.562 29.92 13.562c12.276 0 22.974-5.1014 29.92-13.562s10.268-19.795 10.268-32.25c1e-5 -12.455-3.3216-23.789-10.268-32.25s-17.644-13.562-29.92-13.562zm148.82 1.1855a7.8008 7.8008 0 0 0-0.0449 2e-3 7.8008 7.8008 0 0 0-0.0215 0 7.8008 7.8008 0 0 0-0.0957 8e-3 7.8008 7.8008 0 0 0-7.3223 5.7715l-29.826 72.312a7.8008 7.8008 0 1 0 14.422 5.9473l6.2051-15.045h33.535l0.50586 1.2285 5.6992 13.816a7.8008 7.8008 0 1 0 14.422-5.9473l-5.6992-13.816-24.146-58.543a7.8008 7.8008 0 0 0-7.4277-5.7266 7.8008 7.8008 0 0 0-0.20508-8e-3zm-204.62 0.12891a7.8008 7.8008 0 0 0-6.8906 3.9707l-19.77 33.951-19.754-33.926a7.8008 7.8008 0 0 0-7.127-3.9648 7.8008 7.8008 0 0 0-6.3535 11.814l25.438 43.688v25.721a7.8008 7.8008 0 0 0 15.59 0.44531 7.8008 7.8008 0 0 0 0.0195-0.46875v-25.723l25.438-43.688a7.8008 7.8008 0 0 0-6.5898-11.82zm109.51 0.20508a7.8008 7.8008 0 1 0 0 15.6h18.367l0.0703 64.924a7.8008 7.8008 0 1 0 15.6-0.0156l-0.0703-64.908h18.633a7.8008 7.8008 0 1 0 0-15.6zm-53.713 14.08c8.2502 0 13.747 2.8466 17.863 7.8613 4.1167 5.0147 6.7246 12.685 6.7246 22.352s-2.6079 17.337-6.7246 22.352c-4.1167 5.0147-9.6131 7.8613-17.863 7.8613-8.2502 0-13.747-2.8466-17.863-7.8613-4.1167-5.0147-6.7246-12.685-6.7246-22.352s2.6079-17.337 6.7246-22.352c4.1167-5.0147 9.6131-7.8613 17.863-7.8613zm148.91 13.928 10.334 25.055h-20.668z" color="#000000" color-rendering="auto" dominant-baseline="auto" fill="#fff" image-rendering="auto" shape-rendering="auto" solid-color="#000000" style="font-feature-settings:normal;font-variant-alternates:normal;font-variant-caps:normal;font-variant-ligatures:normal;font-variant-numeric:normal;font-variant-position:normal;isolation:auto;mix-blend-mode:normal;shape-padding:0;text-decoration-color:#000000;text-decoration-line:none;text-decoration-style:solid;text-indent:0;text-orientation:mixed;text-transform:none;white-space:normal"/>
 </g>
 <g transform="matrix(1.0696 0 0 1.0696 84.915 -263.04)">
  <g transform="matrix(.13333 0 0 -.13333 -3.7934e-6 781)" fill="#fffff7">
   <path d="m1885.1 2133.9c107.64 109.42 174.09 261.22 174 427.18v117.13c0 73.52-59.58 133.12-133.1 133.12-73.66 0-133.19-59.6-133.19-133.12v-117.13c-0.04-94.72-37.45-178.98-97.73-240.52-60.51-61.37-141.92-98.4-232.92-98.44-91.05 0.04-172.36 37.07-232.96 98.44-60.2 61.54-97.64 145.8-97.64 240.52v117.13c0 73.52-59.63 133.12-133.15 133.12-73.519 0-133.19-59.6-133.19-133.12v-117.13c-0.047-165.96 66.394-317.76 173.99-427.18 77.6-79.23 177.81-136.99 289.76-162.94v-280.27c-111.95-25.94-212.16-83.75-289.76-163.02-107.6-109.42-174.04-261.12-173.99-427.19v-117.08c0-73.472 59.668-133.09 133.19-133.09 73.516 0 133.15 59.622 133.15 133.09v117.08c0 94.73 37.44 179.09 97.64 240.57 60.6 61.39 141.91 98.4 232.96 98.49 91-0.09 172.41-37.1 232.92-98.49 60.28-61.48 97.69-145.84 97.73-240.57v-117.08c0-73.472 59.53-133.09 133.19-133.09 73.52 0 133.1 59.622 133.1 133.09v117.08c0.09 166.07-66.36 317.77-174 427.19-77.59 79.27-177.8 137.08-289.75 163.02v280.27c111.95 25.95 212.16 83.71 289.75 162.94"/>
   <path d="m1462.2 878.34c127.35 0 230.57 103.12 230.57 230.52 0 127.39-103.22 230.61-230.57 230.61s-230.57-103.22-230.57-230.61c0-127.4 103.22-230.52 230.57-230.52"/>
  </g>
 </g>
</svg>
