<?xml version="1.0" encoding="UTF-8"?>
<svg xmlns="http://www.w3.org/2000/svg" xmlns:xlink="http://www.w3.org/1999/xlink" width="48pt" height="48pt" viewBox="0 0 48 48" version="1.1">
<g id="surface11331">
<path style=" stroke:none;fill-rule:nonzero;fill:rgb(60%,60%,60%);fill-opacity:1;" d="M 4 8 C 1.796875 8 0 9.796875 0 12 L 0 38 C 0 40.203125 1.796875 42 4 42 L 44 42 C 46.203125 42 48 40.203125 48 38 L 48 12 C 48 9.796875 46.203125 8 44 8 Z M 29.5 18.5625 C 31.0625 18.5625 32.6875 19.1875 32.6875 19.1875 L 32.125 22 C 32.125 22 30.84375 21.1875 29.75 21.1875 C 28.070312 21.1875 27.5 21.695312 27.5 22.4375 C 27.5 23.882812 32.1875 24.132812 32.1875 27.375 C 32.195312 30.070312 28.859375 31.9375 26.4375 31.9375 C 24.015625 31.9375 22.75 31.1875 22.75 31.1875 L 23.3125 28.5 C 23.3125 28.5 24.609375 29.25 26.5625 29.25 C 28.515625 29.25 28.8125 28.414062 28.8125 28.0625 C 28.8125 25.992188 24.125 26.585938 24.125 22.5625 C 24.125 20.335938 25.945312 18.5625 29.5 18.5625 Z M 2.625 18.8125 L 7.8125 18.8125 C 9.148438 18.8125 9.6875 20.125 9.6875 20.125 L 10.8125 25.875 C 9.257812 20.875 2.625 18.8125 2.625 18.8125 Z M 14.3125 18.8125 L 17.9375 18.8125 L 12.8125 31.5625 L 9.0625 31.5625 L 6.375 21.25 C 6.375 21.25 9.234375 22.671875 11 26.625 C 11.070312 27.101562 11.25 27.875 11.25 27.875 Z M 19.3125 18.8125 L 22.6875 18.8125 L 20.6875 31.5625 L 17.25 31.5625 Z M 37.625 18.8125 L 41.1875 18.8125 L 43.8125 31.5625 L 40.75 31.5625 L 40.375 29.75 L 36.1875 29.75 L 35.4375 31.5625 L 32.125 31.5625 Z M 38.9375 22.5 L 37.125 27.3125 L 39.875 27.3125 Z M 38.9375 22.5 "/>
</g>
</svg>
