<svg width="34" height="21" fill="none" xmlns="http://www.w3.org/2000/svg"><path d="M23.628 5.906c.012.234.045.467.099.695.012.05.023.1.038.149l.016.06a3.953 3.953 0 0 0 3.765 2.757h5.218a3.115 3.115 0 0 0-3.06-3.66h-6.076z" fill="url(#paint0_linear)"/><path fill-rule="evenodd" clip-rule="evenodd" d="M18.75 6.84l-1.979 4.285h-.201V5.906h-2.81v8.834h2.385a1.605 1.605 0 0 0 1.458-.933l1.979-4.287h.2v5.22h2.81V5.906h-2.384a1.604 1.604 0 0 0-1.458.933zm5.009 3.262v4.636h2.826v-2.61h2.843c1.486 0 2.753-.843 3.243-2.026H23.76zM6.834 11.126l-1.171-4.06a1.606 1.606 0 0 0-1.543-1.16H1.312v8.834h2.812V9.52h.2l1.609 5.22h2.005l1.606-5.22h.201v5.22h2.81V5.906H9.753a1.606 1.606 0 0 0-1.547 1.16l-1.17 4.06h-.201z" fill="#006848"/><defs><linearGradient id="paint0_linear" x1="23.628" y1="7.737" x2="32.819" y2="7.737" gradientUnits="userSpaceOnUse"><stop stop-color="#00AFFF"/><stop offset=".01" stop-color="#00AFFF"/><stop offset="1" stop-color="#1F5BD7"/></linearGradient></defs></svg>
