<svg width="150" height="30" viewBox="0 0 150 30" xmlns="http://www.w3.org/2000/svg"><title>Artboard 1</title><path d="M27.084 5.703a15.95 15.95 0 0 0-.822-1.168 12.893 12.893 0 0 0-.145-.185L8.97 14.607.65 9.633a15.933 15.933 0 0 0-.401 1.69l8.72 5.217L27.084 5.703zm2.263 6.134a15.93 15.93 0 0 0-1.452-4.688L8.97 18.47.034 13.125c-.017.268-.029.538-.033.81-.012 1.004.07 2.008.245 2.998a15.594 15.594 0 0 0 1.764 4.95 15.144 15.144 0 0 0 4.193 4.77 14.631 14.631 0 0 0 3.72 1.998c.576.21 1.175.382 1.78.518a14.27 14.27 0 0 0 2.64.324h.822a14.445 14.445 0 0 0 7.29-2.244 15.036 15.036 0 0 0 4.326-4.2 15.663 15.663 0 0 0 2.597-6.774 16.179 16.179 0 0 0 .135-2.528 15.942 15.942 0 0 0-.166-1.91zM22.205.899A14.539 14.539 0 0 0 20.481 0L8.97 6.886 3.843 3.819c-.365.418-.708.857-1.027 1.314L8.97 8.817 22.205.899zm2.788 2.193c-.41-.41-.843-.796-1.297-1.154L8.97 10.748 1.94 6.542a15.58 15.58 0 0 0-.722 1.5l7.752 4.635 16.023-9.585zM37 25.065V26h113v-2H37v1.065zm70.066-6.987c.2-.928.556-2.205 1.074-3.832h4.889l.664 2.049c.293.919.53 1.695.707 2.323.178.629.28 1.105.31 1.427h3.917a32.28 32.28 0 0 1-.609-1.3 28.883 28.883 0 0 1-.873-2.29l-3.519-10.491a8.036 8.036 0 0 1-.32-1.163 21.75 21.75 0 0 1-.123-.77h-4.4v.517c.06.016.123.045.286.09a.836.836 0 0 1 .375.21c.09.091.144.22.168.388.011.098.02.217.025.35a3.242 3.242 0 0 1-.192 1.045l-2.456 6.327a180.915 180.915 0 0 1-1.172 2.968 148.05 148.05 0 0 1-.83 2.002c-.228.537-.428.968-.597 1.29-.17.321-.32.598-.455.827h2.788c.03-.384.145-1.039.343-1.967zm3.552-11.356l2.08 6.467h-4.205l2.125-6.467zm30.3 7.27c.301.432.59.84.862 1.232s.539.775.796 1.152c.259.376.527.77.808 1.185.294.43.557.851.786 1.264.228.414.438.821.631 1.22l5.199.046a89.335 89.335 0 0 1-2.856-3.2 213.61 213.61 0 0 1-1.327-1.563c-.412-.49-.804-.974-1.17-1.45a26.2 26.2 0 0 1-2.037-2.991l.243-.322c.367-.49.803-1.054 1.305-1.69.5-.637 1.017-1.266 1.549-1.887a30.507 30.507 0 0 1 1.592-1.727c.533-.529 1.01-.93 1.439-1.207v-.023h-3.605c-.12.322-.3.717-.545 1.184-.242.469-.527.971-.849 1.507-.325.537-.664 1.095-1.02 1.67a43.153 43.153 0 0 1-1.06 1.644c-.355.522-.684 1.005-.985 1.45a36.27 36.27 0 0 1-.763 1.081l1.007 1.426zm-16.54 5.537c-.06-.014-.123-.044-.285-.091a.812.812 0 0 1-.377-.208.665.665 0 0 1-.166-.39 5.267 5.267 0 0 1-.033-.668v-6.089h5.951v6.09c0 .276-.011.498-.033.668a.67.67 0 0 1-.166.389.818.818 0 0 1-.377.208c-.161.047-.225.077-.285.091v.516h5.02v-.516c-.061-.014-.124-.044-.286-.091a.81.81 0 0 1-.376-.208.658.658 0 0 1-.167-.39 5.527 5.527 0 0 1-.032-.668v-3.199l-.023.07V9.036l.022.069v-3.2c0-.275.012-.498.033-.668a.67.67 0 0 1 .166-.389.847.847 0 0 1 .377-.209c.161-.045.225-.076.285-.09V4.03H128.608v.517c.06.016.123.045.284.091a.827.827 0 0 1 .377.208.674.674 0 0 1 .166.389c.022.17.033.393.033.669v5.12h-5.951v-5.12c0-.276.01-.499.033-.669a.672.672 0 0 1 .166-.389.84.84 0 0 1 .377-.209c.162-.045.224-.076.285-.09V4.03h-5.02v.517c.06.016.124.045.287.091a.834.834 0 0 1 .375.208c.09.092.144.222.167.389.021.165.032.378.032.641V18.201c0 .262-.011.475-.031.64a.67.67 0 0 1-.168.389.815.815 0 0 1-.376.208c-.162.047-.225.077-.286.091v.516h5.02v-.516zm16.13 0c-.06-.014-.124-.044-.285-.091a.804.804 0 0 1-.377-.208.66.66 0 0 1-.167-.39 5.463 5.463 0 0 1-.033-.668V5.905c0-.276.011-.499.033-.669a.668.668 0 0 1 .167-.389.833.833 0 0 1 .377-.209c.16-.045.224-.076.284-.09V4.03h-5.019v.517c.06.016.122.045.284.091a.832.832 0 0 1 .377.208.675.675 0 0 1 .167.389c.02.17.032.393.032.669v12.267c0 .277-.012.499-.032.669a.667.667 0 0 1-.167.389.812.812 0 0 1-.377.208c-.162.047-.224.077-.285.091v.516h5.02v-.516zm-81.055.377a5.14 5.14 0 0 0 2.07-.678c.606-.36 1.09-.897 1.46-1.609.369-.715.554-1.693.554-2.935 0-.89-.122-1.647-.366-2.266A3.343 3.343 0 0 0 62 10.899c-.538-.391-1.24-.674-2.1-.852-.864-.175-1.916-.263-3.155-.263H55.46v-3.82c0-.415.081-.676.245-.783.162-.108.5-.16 1.017-.16h1.86c.574 0 1.042.021 1.403.068s.661.154.897.322c.236.17.426.422.576.76.146.337.293.789.442 1.357h.819V4.03H51.304v.517c.06.016.123.045.284.091a.824.824 0 0 1 .377.208.676.676 0 0 1 .167.389c.021.166.031.381.032.646v3.222l.001-.001v5.872-.002V18.195c-.002.265-.012.48-.033.646a.671.671 0 0 1-.167.389.812.812 0 0 1-.377.208c-.161.047-.224.077-.286.091v.516h5.795c.796 0 1.582-.045 2.356-.139zm-3.262-.93c-.206-.056-.365-.142-.476-.266a.905.905 0 0 1-.211-.481 5.56 5.56 0 0 1-.044-.761v-6.695h1.329c1.194 0 2.038.318 2.533.954.494.637.741 1.677.741 3.118 0 .952-.086 1.703-.254 2.255-.17.552-.395.974-.676 1.266-.28.29-.601.48-.963.562-.36.086-.733.127-1.117.127-.368 0-.655-.025-.862-.078zm20.177-2.658h-1.017a14.96 14.96 0 0 1-.345 1.496c-.108.369-.268.645-.473.828-.207.183-.498.3-.876.344-.374.046-.895.07-1.559.07-.62 0-1.102-.024-1.45-.07-.345-.045-.606-.13-.784-.253a.794.794 0 0 1-.33-.54 4.937 4.937 0 0 1-.067-.908v-5.04h2.078a12.966 12.966 0 0 1 1.382.093c.259.03.506.08.743.15.236.068.435.156.596.264v-2.05c-.161.108-.36.193-.596.254a7.081 7.081 0 0 1-1.494.219c-.244.01-.454.013-.631.013h-2.078V5.872c0-.354.047-.584.143-.69.095-.11.299-.162.608-.162h1.66c.575 0 1.042.022 1.405.069.36.047.66.154.895.322.236.17.427.422.575.76.149.337.296.789.443 1.357h.82V4.03H65.329v.517c.06.016.123.045.286.091a.84.84 0 0 1 .376.208.675.675 0 0 1 .166.389c.022.17.034.393.034.669v12.267c0 .277-.012.499-.034.669a.668.668 0 0 1-.165.389.822.822 0 0 1-.377.208c-.161.047-.225.077-.286.091v.516h11.04v-3.727zm-37.314 1.92c.599.699 1.354 1.232 2.27 1.6.913.368 2.006.55 3.274.55.634 0 1.217-.044 1.747-.137a9.608 9.608 0 0 0 3.496-1.31l-.487-.989-.774.356c-.25.115-.52.219-.808.31a6.15 6.15 0 0 1-.983.22c-.369.054-.798.08-1.284.08-.944 0-1.715-.185-2.313-.552a3.857 3.857 0 0 1-1.403-1.518c-.34-.645-.573-1.404-.698-2.279a20.146 20.146 0 0 1-.188-2.853c0-.797.037-1.606.111-2.428.073-.82.25-1.557.53-2.209a3.897 3.897 0 0 1 1.24-1.599c.546-.416 1.29-.62 2.234-.62.856 0 1.596.241 2.222.724.628.483 1.016 1.215 1.164 2.197h.972V4.582a5.45 5.45 0 0 0-.984-.356 9.205 9.205 0 0 0-1.183-.23c-.413-.053-.82-.096-1.218-.128a15.09 15.09 0 0 0-1.083-.045c-1.358 0-2.515.193-3.474.576-.959.383-1.744.939-2.357 1.668-.612.728-1.062 1.618-1.349 2.67-.288 1.05-.432 2.243-.432 3.577 0 1.258.144 2.385.432 3.383.287.998.73 1.844 1.326 2.541zm44.37 1.291c-.06-.014-.123-.044-.285-.091a.811.811 0 0 1-.376-.208.674.674 0 0 1-.167-.39 5.512 5.512 0 0 1-.032-.668v-4.476h1.526c.797 0 1.556-.063 2.28-.185a5.03 5.03 0 0 0 1.912-.725c.553-.361.992-.871 1.317-1.53.325-.66.488-1.534.488-2.623 0-1.044-.156-1.873-.465-2.485-.31-.614-.728-1.077-1.25-1.392a4.563 4.563 0 0 0-1.804-.598 17.23 17.23 0 0 0-2.1-.127h-6.085v.517c.06.016.123.045.285.091a.822.822 0 0 1 .377.208c.089.092.144.222.167.389.022.17.033.393.033.669v12.267c0 .277-.011.499-.033.669a.663.663 0 0 1-.167.389.803.803 0 0 1-.377.208c-.162.047-.225.077-.285.091v.516h5.042v-.516zm-.86-13.636c0-.151.01-.287.032-.402a.491.491 0 0 1 .154-.276c.083-.069.209-.118.378-.15.17-.03.402-.045.696-.045.398 0 .771.053 1.12.161.344.107.645.296.904.564.258.269.46.626.598 1.07.14.444.21 1.004.21 1.68 0 1.35-.188 2.389-.563 3.118-.377.728-1.037 1.092-1.98 1.092h-1.549V5.893zm17.203 14.013a5.163 5.163 0 0 0 2.068-.678c.604-.36 1.09-.897 1.46-1.609.369-.715.552-1.693.552-2.935 0-.89-.122-1.647-.365-2.266a3.337 3.337 0 0 0-1.173-1.519c-.537-.391-1.238-.674-2.101-.852-.863-.175-1.915-.263-3.153-.263h-1.282v-3.82c0-.415.079-.676.241-.783.163-.108.504-.16 1.02-.16h1.857c.576 0 1.045.021 1.406.068.362.047.659.154.895.322.236.17.428.422.577.76.146.337.294.789.44 1.357h.82V4.03H91.615v.517c.06.016.123.045.284.091a.829.829 0 0 1 .377.208.673.673 0 0 1 .167.389c.021.17.032.393.032.669v3.199l.001-.001v5.872-.002 3.2c0 .276-.012.498-.033.668a.664.664 0 0 1-.167.389.809.809 0 0 1-.377.208c-.161.047-.224.077-.284.091v.516h5.793c.797 0 1.583-.045 2.359-.139zm-3.265-.93c-.206-.056-.365-.142-.475-.266a.912.912 0 0 1-.212-.481 5.554 5.554 0 0 1-.042-.761v-6.695h1.325c1.195 0 2.04.318 2.534.954.493.637.742 1.677.742 3.118 0 .952-.084 1.703-.255 2.255-.169.552-.395.974-.674 1.266-.281.29-.601.48-.963.562a4.845 4.845 0 0 1-1.117.127c-.37 0-.657-.025-.863-.078z" fill="#FFF" fill-rule="evenodd"/></svg>