<svg xmlns="http://www.w3.org/2000/svg" width="33" height="26" viewBox="0 0 33 26">
  <g fill="#FFFFFF" fill-rule="evenodd" transform="translate(0 8)">
    <polygon points="13.19 .109 15.842 .109 14.183 9.755 11.532 9.755"/>
    <path d="M23.8148787.420832903C23.2894296.225397298 22.4661653.015671127 21.43798.015671127 18.8174915.015671127 16.9716092 1.32409433 16.9558534 3.19921189 16.9410922 4.58534615 18.2736524 5.35856359 19.2796208 5.8200494 20.3119311 6.29286996 20.6589506 6.59444979 20.6539804 7.01666194 20.6474693 7.66328472 19.8296228 7.95870529 19.067393 7.95870529 18.0059079 7.95870529 17.4419886 7.81249764 16.5710107 7.45232616L16.2292596 7.29902338 15.8570415 9.45852271C16.4764275 9.72777668 17.6219097 9.96110702 18.8112292 9.97317949 21.5989649 9.97317949 23.4087144 8.67978642 23.4292909 6.67738408 23.4392807 5.57996854 22.7326671 4.74485831 21.2026903 4.05639857 20.2756982 3.61013917 19.708002 3.31235362 19.7140161 2.86047652 19.7140161 2.45950339 20.1945353 2.03073751 21.2327603 2.03073751 22.1000107 2.01738324 22.7281938 2.20488513 23.2177095 2.40032074L23.4553346 2.51163923 23.8148787.420832903M30.6154544.192529006L28.5661913.192529006C27.9313971.192529006 27.4562957.36431128 27.1775175.992504262L23.2388324 9.83308335 26.0236858 9.83308335C26.0236858 9.83308335 26.4790052 8.64440447 26.5819879 8.38342998 26.8863128 8.38342998 29.591693 8.38756758 29.9784241 8.38756758 30.0577979 8.72526813 30.3010896 9.83308152 30.3010896 9.83308152L32.7619348 9.83308152 30.6154544.192529006 30.6154544.192529006zM27.3452116 6.4102993C27.5645468 5.85449488 28.4018265 3.71362249 28.4018265 3.71362249 28.3861702 3.73929615 28.6195215 3.15510826 28.7534687 2.7929167L28.9326941 3.62462688C28.9326941 3.62462688 29.4404991 5.92732756 29.546663 6.41020014L27.3452116 6.41032255 27.3452116 6.4102993z"/>
    <g transform="translate(.006 .164)">
      <path d="M9.31539776,0.0268563821 L6.71896517,6.60519166 L6.44232382,5.26833517 C5.95897185,3.72727161 4.45300118,2.05759309 2.76939556,1.22169436 L5.1435111,9.65819561 L7.94943764,9.65504184 L12.1246046,0.0268563821 L9.31539776,0.0268563821"/>
      <path d="M4.31025703,0.0208937725 L0.0338470635,0.0208937725 L0,0.221602111 C3.32700233,1.02009902 5.52845311,2.94976703 6.44227412,5.26833517 L5.51239936,0.8353074 C5.35186189,0.224460221 4.88625354,0.0421817671 4.31025703,0.0208937725"/>
    </g>
  </g>
</svg>
