<svg xmlns="http://www.w3.org/2000/svg" width="33" height="26" viewBox="0 0 33 26">
  <defs>
    <linearGradient id="a" x1="-233.561%" x2="372.942%" y1="26.058%" y2="23.566%">
      <stop stop-color="#191E5F" offset="0%"/>
      <stop stop-color="#142787" stop-opacity=".818" offset="100%"/>
    </linearGradient>
    <linearGradient id="b" x1="-182.481%" x2="225.539%" y1="27.757%" y2="24.759%">
      <stop stop-color="#191E5F" offset="0%"/>
      <stop stop-color="#142787" stop-opacity=".818" offset="100%"/>
    </linearGradient>
    <linearGradient id="c" x1="-230.002%" x2="110.954%" y1="26.836%" y2="23.739%">
      <stop stop-color="#191E5F" offset="0%"/>
      <stop stop-color="#142787" stop-opacity=".818" offset="100%"/>
    </linearGradient>
    <linearGradient id="d" x1="-13.859%" x2="265.571%" y1="26.026%" y2="23.531%">
      <stop stop-color="#191E5F" offset="0%"/>
      <stop stop-color="#142787" stop-opacity=".818" offset="100%"/>
    </linearGradient>
    <linearGradient id="e" x1="22.862%" x2="428.639%" y1="47.883%" y2="43.303%">
      <stop stop-color="#191E5F" offset="0%"/>
      <stop stop-color="#142787" stop-opacity=".818" offset="100%"/>
    </linearGradient>
  </defs>
  <g fill="none" fill-rule="evenodd" transform="translate(0 8)">
    <polygon fill="url(#a)" points="13.19 .109 15.842 .109 14.183 9.755 11.532 9.755"/>
    <path fill="url(#b)" d="M23.8148787,0.420832903 C23.2894296,0.225397298 22.4661653,0.015671127 21.43798,0.015671127 C18.8174915,0.015671127 16.9716092,1.32409433 16.9558534,3.19921189 C16.9410922,4.58534615 18.2736524,5.35856359 19.2796208,5.8200494 C20.3119311,6.29286996 20.6589506,6.59444979 20.6539804,7.01666194 C20.6474693,7.66328472 19.8296228,7.95870529 19.067393,7.95870529 C18.0059079,7.95870529 17.4419886,7.81249764 16.5710107,7.45232616 L16.2292596,7.29902338 L15.8570415,9.45852271 C16.4764275,9.72777668 17.6219097,9.96110702 18.8112292,9.97317949 C21.5989649,9.97317949 23.4087144,8.67978642 23.4292909,6.67738408 C23.4392807,5.57996854 22.7326671,4.74485831 21.2026903,4.05639857 C20.2756982,3.61013917 19.708002,3.31235362 19.7140161,2.86047652 C19.7140161,2.45950339 20.1945353,2.03073751 21.2327603,2.03073751 C22.1000107,2.01738324 22.7281938,2.20488513 23.2177095,2.40032074 L23.4553346,2.51163923 L23.8148787,0.420832903"/>
    <path fill="url(#c)" d="M30.6154544,0.192529006 L28.5661913,0.192529006 C27.9313971,0.192529006 27.4562957,0.36431128 27.1775175,0.992504262 L23.2388324,9.83308335 L26.0236858,9.83308335 C26.0236858,9.83308335 26.4790052,8.64440447 26.5819879,8.38342998 C26.8863128,8.38342998 29.591693,8.38756758 29.9784241,8.38756758 C30.0577979,8.72526813 30.3010896,9.83308152 30.3010896,9.83308152 L32.7619348,9.83308152 L30.6154544,0.192529006 L30.6154544,0.192529006 Z M27.3452116,6.4102993 C27.5645468,5.85449488 28.4018265,3.71362249 28.4018265,3.71362249 C28.3861702,3.73929615 28.6195215,3.15510826 28.7534687,2.7929167 L28.9326941,3.62462688 C28.9326941,3.62462688 29.4404991,5.92732756 29.546663,6.41020014 L27.3452116,6.41032255 L27.3452116,6.4102993 Z"/>
    <g transform="translate(.006 .164)">
      <path fill="url(#d)" d="M9.31539776,0.0268563821 L6.71896517,6.60519166 L6.44232382,5.26833517 C5.95897185,3.72727161 4.45300118,2.05759309 2.76939556,1.22169436 L5.1435111,9.65819561 L7.94943764,9.65504184 L12.1246046,0.0268563821 L9.31539776,0.0268563821"/>
      <path fill="url(#e)" d="M4.31025703,0.0208937725 L0.0338470635,0.0208937725 L0,0.221602111 C3.32700233,1.02009902 5.52845311,2.94976703 6.44227412,5.26833517 L5.51239936,0.8353074 C5.35186189,0.224460221 4.88625354,0.0421817671 4.31025703,0.0208937725"/>
    </g>
  </g>
</svg>
